<svg width="49" height="47" viewBox="0 0 49 47" fill="none" xmlns="http://www.w3.org/2000/svg">
<path fill-rule="evenodd" clip-rule="evenodd" d="M25.5158 1.64414e-07H30.0175C33.0048 -9.99443e-06 35.3469 -1.79408e-05 37.2293 0.154293C39.146 0.311424 40.7295 0.636689 42.1627 1.36942C44.519 2.574 46.4346 4.49609 47.6352 6.86021C48.3654 8.29829 48.6896 9.88709 48.8462 11.8103C49 13.6989 49 16.0489 49 19.0462V28.3589C49 33.8156 44.5913 38.2391 39.1528 38.2391H37.8424C37.3012 38.2391 36.9311 38.7875 37.1321 39.2917C38.6275 43.0427 34.322 46.4339 31.0455 44.0857L27.0023 41.188C26.097 41.5106 25.133 41.7063 24.1319 41.7545C23.892 41.7661 23.5921 41.7661 23.1192 41.766H23.0609L22.9359 41.7662C21.5462 41.7752 20.1904 42.2163 19.0505 43.0333L18.9692 43.0922L14.547 46.3046C11.6325 48.422 7.99714 45.3224 9.25374 42.1273C9.29025 42.0345 9.27779 41.9465 9.22753 41.871C9.17792 41.7965 9.11458 41.766 9.04114 41.766H8.02187C3.57073 41.766 5.04195e-07 38.1024 5.04195e-07 33.6299L2.44584e-07 26.2746C-1.19571e-05 23.9229 -2.1564e-05 22.0591 0.120666 20.5568C0.244053 19.0209 0.501494 17.7201 1.09708 16.5313C2.06262 14.604 3.60541 13.033 5.50805 12.047C5.89506 11.8464 6.29395 11.6834 6.70936 11.5503C6.87405 9.73944 7.20321 8.22873 7.89818 6.86021C9.09872 4.49609 11.0144 2.574 13.3706 1.36942C14.8038 0.636689 16.3873 0.311424 18.3041 0.154294C20.1864 -1.79408e-05 22.5285 -9.99443e-06 25.5158 1.64414e-07ZM10.0573 11.0083C11.43 10.9253 13.0524 10.9254 15.0017 10.9254L18.6442 10.9255C20.9543 10.9254 22.7891 10.9254 24.2689 11.0484C25.7839 11.1743 27.0711 11.4374 28.2475 12.047C30.1501 13.033 31.6929 14.604 32.6585 16.5313C33.2541 17.7201 33.5115 19.0209 33.6349 20.5568C33.7556 22.0591 33.7556 23.9229 33.7556 26.2746V31.0445C33.7556 31.4789 33.7556 31.7553 33.7443 31.9976C33.6061 34.9671 32.2282 37.6077 30.1174 39.3926L32.9442 41.4185C33.5659 41.8641 34.3828 41.2207 34.0991 40.5089C33.0398 37.8518 34.9901 34.9614 37.8424 34.9614H39.1528C42.7871 34.9614 45.7333 32.0054 45.7333 28.3589V19.1195C45.7333 16.0331 45.7321 13.8168 45.5904 12.0772C45.4503 10.3567 45.1811 9.24724 44.7245 8.34823C43.8372 6.60083 42.4213 5.18016 40.6797 4.28982C39.7837 3.83175 38.678 3.56161 36.9632 3.42104C35.2294 3.27891 33.0206 3.27764 29.9444 3.27764H25.5889C22.5128 3.27764 20.3039 3.27891 18.5701 3.42104C16.8554 3.56161 15.7496 3.83175 14.8536 4.28982C13.1121 5.18016 11.6962 6.60083 10.8088 8.34823C10.4531 9.04869 10.2127 9.87263 10.0573 11.0083ZM15.1839 14.2031C11.9078 14.2031 9.96419 14.2096 8.54556 14.4672C7.9028 14.584 7.41922 14.7456 7.00707 14.9592C5.72257 15.6248 4.67414 16.6891 4.01575 18.0033C3.68825 18.657 3.48415 19.4834 3.37677 20.8201C3.2679 22.1753 3.26667 23.9071 3.26667 26.3457V33.6299C3.26667 36.3341 5.41642 38.4884 8.02187 38.4884H9.04114C11.5463 38.4884 13.1932 41.04 12.2924 43.3305C12.2543 43.4272 12.2643 43.4791 12.2727 43.5073C12.285 43.5484 12.3159 43.6 12.3702 43.6433C12.4245 43.6867 12.4747 43.7 12.5031 43.7016C12.517 43.7024 12.5559 43.7046 12.6313 43.6498L17.0534 40.4373L17.1518 40.3661C18.8372 39.1583 20.8481 38.5021 22.9147 38.4886L23.0609 38.4884C23.6108 38.4884 23.8247 38.4879 23.9753 38.4807C24.884 38.4369 25.7433 38.2139 26.5224 37.8459C28.7662 36.7861 30.3567 34.5187 30.4812 31.8447C30.4884 31.689 30.4889 31.4952 30.4889 30.995V26.3457C30.4889 23.9071 30.4877 22.1753 30.3788 20.8201C30.2714 19.4834 30.0673 18.657 29.7398 18.0033C29.0814 16.6891 28.033 15.6248 26.7485 14.9592C26.1132 14.63 25.3088 14.4237 23.9993 14.3148C22.6701 14.2044 20.9705 14.2031 18.5716 14.2031H15.1839Z" fill="#FF4D4D"/>
<path d="M12.5222 27.8599C12.5222 29.0667 11.5472 30.045 10.3444 30.045C9.14169 30.045 8.16667 29.0667 8.16667 27.8599C8.16667 26.6531 9.14169 25.6748 10.3444 25.6748C11.5472 25.6748 12.5222 26.6531 12.5222 27.8599Z" fill="#FF4D4D"/>
<path d="M19.0556 27.8599C19.0556 29.0667 18.0805 30.045 16.8778 30.045C15.675 30.045 14.7 29.0667 14.7 27.8599C14.7 26.6531 15.675 25.6748 16.8778 25.6748C18.0805 25.6748 19.0556 26.6531 19.0556 27.8599Z" fill="#FF4D4D"/>
<path d="M25.5889 27.8599C25.5889 29.0667 24.6139 30.045 23.4111 30.045C22.2084 30.045 21.2333 29.0667 21.2333 27.8599C21.2333 26.6531 22.2084 25.6748 23.4111 25.6748C24.6139 25.6748 25.5889 26.6531 25.5889 27.8599Z" fill="#FF4D4D"/>
</svg>
