<svg width="69" height="40" viewBox="0 0 69 40" fill="none" xmlns="http://www.w3.org/2000/svg">
<path fill-rule="evenodd" clip-rule="evenodd" d="M1.56082 31.2821C1.35011 31.2821 1.171 31.2082 1.0235 31.0604C0.875996 30.9126 0.802246 30.7332 0.802246 30.5221V9.87533C0.802246 9.64311 0.875996 9.45838 1.0235 9.32116C1.171 9.18394 1.35011 9.11533 1.56082 9.11533H4.59514C4.82693 9.11533 5.0113 9.18394 5.14827 9.32116C5.28523 9.45838 5.35372 9.64311 5.35372 9.87533V30.5221C5.35372 30.7332 5.28523 30.9126 5.14827 31.0604C5.0113 31.2082 4.82693 31.2821 4.59514 31.2821H1.56082ZM11.043 31.2821C10.8322 31.2821 10.6531 31.2082 10.5056 31.0604C10.3581 30.9126 10.2844 30.7332 10.2844 30.5221V9.907C10.2844 9.67477 10.3529 9.48477 10.4898 9.33699C10.6268 9.18922 10.8112 9.11533 11.043 9.11533H13.5083C13.9087 9.11533 14.2142 9.29477 14.425 9.65366L23.4647 23.7137V9.907C23.4647 9.67477 23.5332 9.48477 23.6701 9.33699C23.8071 9.18922 23.9915 9.11533 24.2233 9.11533H26.9415C27.1733 9.11533 27.3629 9.18922 27.5104 9.33699C27.6579 9.48477 27.7317 9.67477 27.7317 9.907V30.4904C27.7317 30.7226 27.6579 30.9126 27.5104 31.0604C27.3629 31.2082 27.1838 31.2821 26.9731 31.2821H24.4761C24.0547 31.2821 23.7386 31.1026 23.5279 30.7437L14.5198 17.0004V30.5221C14.5198 30.7332 14.4513 30.9126 14.3143 31.0604C14.1774 31.2082 13.993 31.2821 13.7612 31.2821H11.043ZM41.165 31.5986C38.2571 31.5986 36.0078 30.8545 34.4168 29.3661C32.8259 27.8778 31.9778 25.7614 31.8724 23.0169C31.8514 22.4469 31.8408 21.5181 31.8408 20.2303C31.8408 18.9214 31.8514 17.9714 31.8724 17.3803C31.9778 14.678 32.8312 12.5722 34.4326 11.0627C36.0341 9.55327 38.2782 8.79855 41.165 8.79855C43.0404 8.79855 44.6734 9.1205 46.0642 9.76439C47.4549 10.4083 48.5348 11.2897 49.3039 12.4086C50.0731 13.5275 50.4787 14.7836 50.5208 16.1769V16.2402C50.5208 16.4091 50.4523 16.5516 50.3154 16.6677C50.1784 16.7839 50.0256 16.8419 49.8571 16.8419H46.7912C46.5383 16.8419 46.3487 16.7839 46.2222 16.6677C46.0958 16.5516 45.9904 16.3458 45.9061 16.0502C45.5901 14.7413 45.0422 13.8177 44.2626 13.2794C43.4829 12.7411 42.4504 12.4719 41.165 12.4719C38.1518 12.4719 36.582 14.1608 36.4555 17.5386C36.4344 18.1086 36.4239 18.9847 36.4239 20.1669C36.4239 21.3492 36.4344 22.2464 36.4555 22.8586C36.582 26.2364 38.1518 27.9253 41.165 27.9253C42.4293 27.9253 43.4566 27.6561 44.2468 27.1178C45.0369 26.5794 45.5901 25.6558 45.9061 24.3469C45.9904 24.0514 46.0958 23.8456 46.2222 23.7294C46.3487 23.6133 46.5383 23.5553 46.7912 23.5553H49.8571C50.0467 23.5553 50.21 23.6186 50.347 23.7453C50.484 23.8719 50.5419 24.0303 50.5208 24.2203C50.4787 25.6136 50.0731 26.8697 49.3039 27.9886C48.5348 29.1075 47.4549 29.9889 46.0642 30.6328C44.6734 31.2767 43.0404 31.5986 41.165 31.5986ZM64.703 31.2821C64.4923 31.2821 64.3132 31.2082 64.1657 31.0604C64.0182 30.9126 63.9444 30.7332 63.9444 30.5221V26.4687H53.9248C53.7141 26.4687 53.535 26.3948 53.3875 26.2471C53.24 26.0993 53.1663 25.9198 53.1663 25.7087V23.5237C53.1663 23.1859 53.2822 22.8693 53.5139 22.5737L62.8381 9.65366C62.9435 9.48477 63.1015 9.35283 63.3123 9.25783C63.523 9.16283 63.7548 9.11533 64.0076 9.11533H67.4844C67.7162 9.11533 67.9006 9.18394 68.0376 9.32116C68.1745 9.45838 68.243 9.64311 68.243 9.87533V30.5221C68.243 30.7332 68.1745 30.9126 68.0376 31.0604C67.9006 31.2082 67.7162 31.2821 67.4844 31.2821H64.703ZM57.6231 22.8268H64.0394V13.7384L57.6231 22.8268Z" fill="#FF4D4D"/>
<path d="M0 36.3432C0 36.1537 0.153667 36 0.343226 36H68.3019C68.4914 36 68.6451 36.1537 68.6451 36.3432V39.6568C68.6451 39.8463 68.4914 40 68.3019 40H0.343225C0.153667 40 0 39.8463 0 39.6568V36.3432Z" fill="#FF4D4D"/>
<path d="M0 0.343226C0 0.153667 0.153667 0 0.343226 0H68.3019C68.4914 0 68.6451 0.153667 68.6451 0.343225V3.65679C68.6451 3.84635 68.4914 4.00001 68.3019 4.00001H0.343225C0.153667 4.00001 0 3.84635 0 3.65679V0.343226Z" fill="#FF4D4D"/>
</svg>
