<svg width="199" height="154" viewBox="0 0 199 154" fill="none" xmlns="http://www.w3.org/2000/svg">
<path d="M123.908 4.08889L107.007 28.8889C105.838 30.5778 108.085 32.6222 109.704 31.2L126.335 16.8889C126.785 16.5333 127.414 16.8 127.414 17.4222V62.1333C127.414 62.7556 126.605 63.0222 126.245 62.5778L75.9012 3.02222C74.283 1.06667 71.9456 0 69.3385 0H67.5405C62.8657 0 59 3.82222 59 8.53333V71.4667C59 76.1778 62.8657 80 67.6304 80C70.5971 80 73.384 78.4889 75.0022 75.9111L91.9034 51.1111C93.0721 49.4222 90.8246 47.3778 89.2064 48.8L72.5749 63.0222C72.1254 63.3778 71.4961 63.1111 71.4961 62.4889V17.8667C71.4961 17.2444 72.3052 16.9778 72.6648 17.4222L123.009 76.9778C124.627 78.9333 127.054 80 129.572 80H131.37C136.134 80 140 76.1778 140 71.4667V8.53333C139.91 3.82222 136.044 0 131.28 0C128.313 0 125.526 1.51111 123.908 4.08889Z" fill="black"/>
<path d="M41.7522 104.738V153.17C41.7522 153.539 41.4763 153.908 41.0165 153.908H35.9584C33.6593 153.908 31.4521 152.708 30.1646 150.771L7.35722 115.439L8.09295 133.059V153.262C8.09295 153.631 7.81705 154 7.35722 154H0.735718C0.367857 154 0 153.723 0 153.262V104.738C0 104.369 0.275892 104 0.735718 104H5.70185C8.00098 104 10.2081 105.199 11.4957 107.137L34.3031 142.376L33.5673 124.756V104.738C33.5673 104.369 33.8432 104 34.3031 104H40.9246C41.4763 104 41.7522 104.277 41.7522 104.738Z" fill="black"/>
<path d="M109.623 153.816H102.634C102.174 153.816 101.806 153.354 101.99 152.893L120.567 104.646C120.751 104.277 121.119 104 121.486 104H130.315C130.775 104 131.143 104.277 131.235 104.646L149.904 152.893C150.088 153.354 149.72 153.816 149.26 153.816H142.271C141.995 153.816 141.719 153.631 141.627 153.354L126.636 113.686C126.453 113.133 125.533 113.133 125.349 113.686L110.359 153.354C110.175 153.631 109.899 153.816 109.623 153.816Z" fill="black"/>
<path d="M198.645 152.708L184.666 134.812C192.575 133.336 197.174 127.985 197.174 119.775C197.174 110.365 191.104 104 180.252 104H160.755C160.203 104 159.744 104.461 159.744 105.015C159.744 108.705 162.687 111.657 166.365 111.657H179.516C186.046 111.657 189.173 114.978 189.173 119.867C189.173 124.756 186.138 128.077 179.516 128.077H160.939C160.387 128.077 159.928 128.539 159.928 129.092V153.077C159.928 153.446 160.203 153.816 160.663 153.816H167.285C167.653 153.816 168.021 153.539 168.021 153.077V135.273H175.654L187.793 151.14C189.081 152.893 191.104 153.816 193.311 153.816H198.369C198.737 153.816 199.013 153.17 198.645 152.708Z" fill="black"/>
<path d="M88.6548 104H57.8464C57.2946 104 56.9268 104.369 56.9268 104.923C56.9268 108.613 59.9616 111.657 63.6402 111.657H88.6548C89.0227 111.657 89.3905 111.38 89.3905 110.919V104.646C89.2986 104.277 89.0227 104 88.6548 104ZM88.6548 146.159H65.6635C65.2956 146.159 64.9277 145.882 64.9277 145.421V132.967C64.9277 132.598 65.2036 132.229 65.6635 132.229H86.9075C87.2753 132.229 87.6432 131.952 87.6432 131.491V125.218C87.6432 124.849 87.3673 124.48 86.9075 124.48H57.9384C57.3866 124.48 56.9268 124.941 56.9268 125.494V152.708C56.9268 153.262 57.3866 153.723 57.9384 153.723H88.6548C89.0227 153.723 89.3905 153.447 89.3905 152.985V146.712C89.2986 146.435 89.0227 146.159 88.6548 146.159Z" fill="black"/>
</svg>
