<svg width="56" height="50" viewBox="0 0 56 50" fill="none" xmlns="http://www.w3.org/2000/svg">
<path fill-rule="evenodd" clip-rule="evenodd" d="M33.1223 12.0322C31.5776 7.63967 24.7739 7.63967 23.2292 12.0322C23.009 12.6585 22.4021 13.0331 21.7772 13.0331C16.6263 13.0331 14.7627 18.9611 18.7004 21.6045C19.243 21.9687 19.4977 22.6433 19.2746 23.2775C18.5178 25.4296 19.4885 27.4428 21.1445 28.5544C22.809 29.6718 25.2541 29.9265 27.298 28.5544C27.8255 28.2003 28.526 28.2003 29.0535 28.5544C31.0975 29.9265 33.5426 29.6718 35.2071 28.5544C36.863 27.4428 37.8337 25.4296 37.0769 23.2775C36.8539 22.6433 37.1085 21.9687 37.6511 21.6045C41.5888 18.9611 39.7252 13.0331 34.5744 13.0331C33.9494 13.0331 33.3426 12.6585 33.1223 12.0322ZM21.7772 16.3098C24.0669 16.3098 26.0433 14.9504 26.7238 13.0154C27.1931 11.6809 29.1585 11.6809 29.6278 13.0154C30.3082 14.9504 32.2846 16.3098 34.5744 16.3098C35.2828 16.3098 35.8114 16.6995 36.0264 17.3107C36.2426 17.9256 36.066 18.5717 35.4521 18.9838C33.6367 20.2024 32.9047 22.3336 33.5823 24.2607C33.8325 24.9721 33.5331 25.5813 33.0081 25.9337C32.4917 26.2804 31.845 26.3314 31.2525 25.9337C29.4221 24.7049 26.9295 24.7049 25.099 25.9337C24.5066 26.3314 23.8599 26.2804 23.3434 25.9337C22.8184 25.5813 22.519 24.9721 22.7692 24.2607C23.4469 22.3336 22.7148 20.2024 20.8994 18.9838C20.2856 18.5717 20.1089 17.9256 20.3252 17.3107C20.5401 16.6995 21.0688 16.3098 21.7772 16.3098Z" fill="#FF4D4D"/>
<path fill-rule="evenodd" clip-rule="evenodd" d="M28.1758 0C16.3736 0 6.80612 8.55761 6.80612 19.114C6.80612 21.6798 7.3723 24.1306 8.4 26.3695C7.69075 27.1039 7.03375 28.1221 6.1492 29.4931L1.68972 36.4018C1.13906 37.2546 0.629902 38.0432 0.336348 38.6959C0.0488142 39.3353 -0.313304 40.444 0.486925 41.4703C1.29729 42.5095 2.59809 42.5711 3.369 42.5368C4.14953 42.5021 5.14177 42.3274 6.20764 42.1397L8.14011 41.7997C9.21143 41.6113 9.84705 41.5025 10.3187 41.4735C10.534 41.4603 10.6497 41.4692 10.7066 41.4778C10.7327 41.4817 10.745 41.4853 10.7482 41.4863C10.7508 41.4872 10.7522 41.4877 10.7553 41.4893C10.7584 41.4909 10.7597 41.4917 10.7618 41.4934C10.7643 41.4953 10.774 41.503 10.7909 41.5213C10.8276 41.5611 10.8941 41.6462 10.989 41.8197C11.1967 42.1995 11.4092 42.7462 11.7624 43.6703L12.3994 45.337C12.7506 46.2566 13.0776 47.1126 13.4343 47.7346C13.7866 48.3489 14.4966 49.3257 15.908 49.4338C17.3017 49.5406 18.1942 48.7057 18.6695 48.1633C19.1547 47.6095 19.6637 46.8208 20.214 45.9679L24.5835 39.1986C24.8515 38.7834 25.0959 38.4048 25.3152 38.058C26.2516 38.1701 27.2066 38.2279 28.1758 38.2279C28.9261 38.2279 29.668 38.1933 30.3994 38.1256C30.6075 38.4537 30.8373 38.8097 31.0878 39.1977L35.4578 45.9679C36.0081 46.8208 36.5171 47.6095 37.0023 48.1633C37.4776 48.7057 38.3701 49.5406 39.7638 49.4338C41.1752 49.3257 41.8852 48.3489 42.2375 47.7346C42.5942 47.1126 42.9211 46.2567 43.2724 45.3372L43.9094 43.6703C44.2626 42.7462 44.4751 42.1995 44.6828 41.8197C44.7777 41.6462 44.8442 41.5611 44.8809 41.5213C44.883 41.519 44.885 41.5169 44.8869 41.5149C44.9001 41.5012 44.9078 41.4951 44.91 41.4934L44.913 41.4912L44.9165 41.4893C44.9196 41.4877 44.921 41.4872 44.9236 41.4863C44.9268 41.4853 44.9391 41.4817 44.9652 41.4778C45.0221 41.4692 45.1378 41.4603 45.3531 41.4735C45.8247 41.5025 46.4604 41.6113 47.5317 41.7997L49.4642 42.1397C50.5301 42.3274 51.5223 42.5021 52.3028 42.5368C53.0737 42.5711 54.3745 42.5095 55.1849 41.4703C55.9851 40.444 55.623 39.3353 55.3355 38.6959C55.0419 38.0432 54.5328 37.2547 53.9822 36.402L49.4768 29.4219C48.8083 28.3854 48.2667 27.5454 47.7126 26.8694C48.8911 24.4976 49.5454 21.8723 49.5454 19.114C49.5454 8.55761 39.9779 0 28.1758 0ZM10.4695 19.114C10.4695 10.3673 18.3969 3.27668 28.1758 3.27668C37.9547 3.27668 45.882 10.3673 45.882 19.114C45.882 21.7325 45.173 24.1981 43.9188 26.3701C41.4075 30.7194 36.7113 33.892 31.1377 34.7309C30.1757 34.8757 29.1863 34.9512 28.1758 34.9512C26.9941 34.9512 25.8413 34.8479 24.7273 34.6514C19.2687 33.6882 14.7048 30.4764 12.2999 26.1354C11.1287 24.0213 10.4695 21.6388 10.4695 19.114ZM9.21538 31.2963C9.67845 30.5789 10.0303 30.0369 10.318 29.6157C12.9597 33.2028 16.9168 35.9475 21.5792 37.2995L17.1046 44.2317C16.785 44.7268 16.5304 45.1192 16.3176 45.4311C16.1813 45.0995 16.0223 44.6866 15.8243 44.1687L15.1964 42.5256C14.8867 41.715 14.6013 40.968 14.2797 40.3799C13.9246 39.7306 13.4295 39.0867 12.587 38.6516C11.7446 38.2166 10.8735 38.155 10.0673 38.2046C9.33711 38.2495 8.47115 38.4019 7.53157 38.5673L5.62663 38.9025C5.0262 39.0081 4.54691 39.0914 4.15771 39.1516C4.35328 38.8308 4.60587 38.4374 4.92544 37.9423L9.21538 31.2963ZM34.1954 37.4587C38.8973 36.2264 42.924 33.5889 45.6718 30.0912C45.8935 30.4263 46.1509 30.823 46.4564 31.2963L50.7464 37.9423C51.0659 38.4374 51.3185 38.8308 51.5141 39.1516C51.1249 39.0914 50.6456 39.0081 50.0452 38.9025L48.1405 38.5674C47.2008 38.402 46.3347 38.2495 45.6045 38.2046C44.7983 38.155 43.9272 38.2166 43.0848 38.6516C42.2423 39.0867 41.7472 39.7306 41.3921 40.3799C41.0705 40.968 40.7851 41.715 40.4754 42.5256L39.8475 44.1687C39.6495 44.6866 39.4905 45.0995 39.3542 45.4311C39.1414 45.1192 38.8868 44.7268 38.5672 44.2317L34.1954 37.4587Z" fill="#FF4D4D"/>
</svg>
