<svg width="49" height="44" viewBox="0 0 49 44" fill="none" xmlns="http://www.w3.org/2000/svg">
<path fill-rule="evenodd" clip-rule="evenodd" d="M31.1216 0C25.6361 0 21.1892 4.47715 21.1892 10C21.1892 15.5228 25.6361 20 31.1216 20C36.6072 20 41.0541 15.5228 41.0541 10C41.0541 4.47715 36.6072 0 31.1216 0ZM25.1622 10C25.1622 6.68629 27.8303 4 31.1216 4C34.4129 4 37.0811 6.68629 37.0811 10C37.0811 13.3137 34.4129 16 31.1216 16C27.8303 16 25.1622 13.3137 25.1622 10Z" fill="#FF4D4D"/>
<path fill-rule="evenodd" clip-rule="evenodd" d="M23.1757 24C17.6901 24 13.2432 28.4772 13.2432 34C13.2432 39.5228 17.6901 44 23.1757 44H39.0676C44.5531 44 49 39.5228 49 34C49 28.4772 44.5531 24 39.0676 24H23.1757ZM17.2162 34C17.2162 30.6863 19.8844 28 23.1757 28H39.0676C42.3589 28 45.027 30.6863 45.027 34C45.027 37.3137 42.3589 40 39.0676 40H23.1757C19.8844 40 17.2162 37.3137 17.2162 34Z" fill="#FF4D4D"/>
<path d="M19.8705 17.0364C19.4528 16.3607 18.6689 16 17.8784 16C14.5871 16 11.9189 13.3137 11.9189 10C11.9189 6.68629 14.5871 4 17.8784 4C18.6689 4 19.4528 3.63927 19.8705 2.96359C19.889 2.93371 19.9076 2.9039 19.9263 2.87418C20.6218 1.76882 20.2694 0.203735 18.9776 0.060542C18.6166 0.020536 18.2499 0 17.8784 0C12.3928 0 7.94595 4.47715 7.94595 10C7.94595 15.5228 12.3928 20 17.8784 20C18.2499 20 18.6166 19.9795 18.9776 19.9395C20.2694 19.7963 20.6218 18.2312 19.9263 17.1258C19.9076 17.0961 19.889 17.0663 19.8705 17.0364Z" fill="#FF4D4D"/>
<path d="M11.8084 38.1783C11.5078 37.6733 10.977 37.3333 10.3922 37.3333H9.93243C6.64112 37.3333 3.97297 34.647 3.97297 31.3333C3.97297 28.0196 6.64112 25.3333 9.93243 25.3333H10.3922C10.977 25.3333 11.5078 24.9934 11.8084 24.4883C12.5424 23.2555 11.7459 21.3333 10.3183 21.3333H9.93243C4.4469 21.3333 0 25.8105 0 31.3333C0 36.8562 4.4469 41.3333 9.93243 41.3333H10.3183C11.7459 41.3333 12.5424 39.4111 11.8084 38.1783Z" fill="#FF4D4D"/>
</svg>
