<svg width="25" height="28" viewBox="0 0 25 28" fill="none" xmlns="http://www.w3.org/2000/svg">
<path d="M13.3124 1.2C13.3124 0.537258 12.8624 0 12.3072 0C11.7521 0 11.3021 0.537258 11.3021 1.2L11.3021 12.8H1.58571C1.03058 12.8 0.580566 13.3373 0.580566 14C0.580566 14.6627 1.03058 15.2 1.58571 15.2H11.3021V26.8C11.3021 27.4627 11.7521 28 12.3072 28C12.8624 28 13.3124 27.4627 13.3124 26.8V15.2H23.0288C23.5839 15.2 24.0339 14.6627 24.0339 14C24.0339 13.3373 23.5839 12.8 23.0288 12.8H13.3124L13.3124 1.2Z" fill="#FF4D4D"/>
</svg>
